<svg width="18" height="18" fill="none" xmlns="http://www.w3.org/2000/svg"><g clip-path="url('#clip0_1_40')" fill="#9FAEC6"><path d="M0 14.25A3.754 3.754 0 0 0 3.75 18h10.5A3.754 3.754 0 0 0 18 14.25V7.5H0v6.75Zm12.75-3.375a1.124 1.124 0 1 1 0 2.249 1.124 1.124 0 0 1 0-2.249Zm-3.75 0a1.124 1.124 0 1 1 0 2.249 1.124 1.124 0 0 1 0-2.249Zm-3.75 0a1.124 1.124 0 1 1 0 2.249 1.124 1.124 0 0 1 0-2.249ZM14.25 1.5h-.75V.75a.75.75 0 1 0-1.5 0v.75H6V.75a.75.75 0 0 0-1.5 0v.75h-.75A3.755 3.755 0 0 0 0 5.25V6h18v-.75a3.755 3.755 0 0 0-3.75-3.75Z"/></g><defs><clipPath id="clip0_1_40"><path fill="#fff" d="M0 0h18v18H0z"/></clipPath></defs></svg>