<svg width="64" height="64" fill="none" xmlns="http://www.w3.org/2000/svg"><g filter="url('#filter0_d_1_96')"><circle cx="32" cy="26" r="14" fill="#F3C619"/></g><path d="M34.5 33.225a.618.618 0 0 1-.442-.183l-5.433-5.434a2.283 2.283 0 0 1 0-3.216l5.433-5.434a.629.629 0 0 1 .884 0 .629.629 0 0 1 0 .884l-5.434 5.433c-.4.4-.4 1.05 0 1.45l5.434 5.433a.629.629 0 0 1 0 .884.655.655 0 0 1-.442.183Z" fill="#fff"/><defs><filter id="filter0_d_1_96" x="0" y="0" width="64" height="64" filterUnits="userSpaceOnUse" color-interpolation-filters="sRGB"><feFlood flood-opacity="0" result="BackgroundImageFix"/><feColorMatrix in="SourceAlpha" values="0 0 0 0 0 0 0 0 0 0 0 0 0 0 0 0 0 0 127 0" result="hardAlpha"/><feMorphology radius="2" operator="dilate" in="SourceAlpha" result="effect1_dropShadow_1_96"/><feOffset dy="6"/><feGaussianBlur stdDeviation="8"/><feComposite in2="hardAlpha" operator="out"/><feColorMatrix values="0 0 0 0 0.952941 0 0 0 0 0.776471 0 0 0 0 0.0980392 0 0 0 0.3 0"/><feBlend in2="BackgroundImageFix" result="effect1_dropShadow_1_96"/><feBlend in="SourceGraphic" in2="effect1_dropShadow_1_96" result="shape"/></filter></defs></svg>