<svg width="28" height="28" fill="none" xmlns="http://www.w3.org/2000/svg"><path d="M4.661 23.338a2.248 2.248 0 0 1-1.648-.686 2.242 2.242 0 0 1-.685-1.647v-14c0-.641.229-1.191.686-1.648a2.242 2.242 0 0 1 1.647-.685h7l2.334 2.333h9.333c.642 0 1.191.229 1.649.686.457.458.685 1.007.684 1.648v3.85a4.313 4.313 0 0 0-1.152-.307 4.314 4.314 0 0 0-1.18.015V9.339H13.031L10.7 7.005H4.661v14h9.45l-.116.117v2.216H4.66Zm11.667 2.334v-3.588l6.446-6.416a1.59 1.59 0 0 1 .583-.38c.214-.077.428-.116.642-.116a1.748 1.748 0 0 1 1.254.525l1.08 1.079c.155.175.277.37.365.583.087.214.13.428.13.642 0 .214-.039.433-.116.657a1.554 1.554 0 0 1-.38.597l-6.416 6.417h-3.588Zm1.75-1.75h1.108l3.53-3.559-.525-.554-.554-.525-3.559 3.53v1.108Zm4.113-4.113-.554-.525 1.079 1.08-.525-.555Z" fill="#fff"/></svg>