<svg width="28" height="28" fill="none" xmlns="http://www.w3.org/2000/svg"><path d="M2.328 14.005c0-4.4 0-6.6 1.367-7.966 1.367-1.367 3.567-1.367 7.966-1.367h4.667c4.4 0 6.6 0 7.966 1.367 1.367 1.366 1.367 3.567 1.367 7.966v2.333c0 4.4 0 6.6-1.367 7.966-1.366 1.368-3.566 1.368-7.966 1.368h-4.666c-4.4 0-6.6 0-7.967-1.367s-1.367-3.567-1.367-7.966v-2.334Z" stroke="#fff" stroke-width="1.5"/><path d="M8.156 4.672v-1.75m11.667 1.75v-1.75M2.906 10.505h22.167" stroke="#fff" stroke-width="1.5" stroke-linecap="round"/><path d="M21 19.833a1.167 1.167 0 1 1-2.333 0 1.167 1.167 0 0 1 2.333 0Zm0-4.666a1.167 1.167 0 1 1-2.333 0 1.167 1.167 0 0 1 2.333 0Zm-5.833 4.666a1.167 1.167 0 1 1-2.334 0 1.167 1.167 0 0 1 2.334 0Zm0-4.666a1.167 1.167 0 1 1-2.334 0 1.167 1.167 0 0 1 2.334 0Zm-5.834 4.666a1.167 1.167 0 1 1-2.333 0 1.167 1.167 0 0 1 2.333 0Zm0-4.666a1.167 1.167 0 1 1-2.333 0 1.167 1.167 0 0 1 2.333 0Z" fill="#fff"/></svg>