<svg width="28" height="28" fill="none" xmlns="http://www.w3.org/2000/svg"><path d="M10.5 3.5H4.667c-.645 0-1.167.522-1.167 1.167v8.166c0 .645.522 1.167 1.167 1.167H10.5c.644 0 1.167-.522 1.167-1.167V4.667c0-.645-.523-1.167-1.167-1.167ZM23.328 3.5h-5.833c-.645 0-1.167.522-1.167 1.167v3.5c0 .644.523 1.166 1.167 1.166h5.833c.645 0 1.167-.522 1.167-1.166v-3.5c0-.645-.523-1.167-1.167-1.167ZM23.328 14h-5.833c-.645 0-1.167.522-1.167 1.167v8.166c0 .645.523 1.167 1.167 1.167h5.833c.645 0 1.167-.522 1.167-1.167v-8.166c0-.645-.523-1.167-1.167-1.167ZM10.5 18.672H4.667c-.645 0-1.167.522-1.167 1.166v3.5c0 .645.522 1.167 1.167 1.167H10.5c.644 0 1.167-.522 1.167-1.166v-3.5c0-.645-.523-1.167-1.167-1.167Z" stroke="#F3C619" stroke-width="2" stroke-linecap="round" stroke-linejoin="round"/></svg>