<svg width="28" height="28" fill="none" xmlns="http://www.w3.org/2000/svg"><path d="M8.453 7a.875.875 0 0 0-.875.875v8.75a.875.875 0 1 0 1.75 0v-8.75A.875.875 0 0 0 8.453 7Zm5.542 0a.875.875 0 0 0-.875.875v5.25a.875.875 0 1 0 1.75 0v-5.25A.875.875 0 0 0 13.995 7Zm4.667.875a.875.875 0 1 1 1.75 0v11.083a.875.875 0 1 1-1.75 0V7.875Z" fill="#fff"/><path d="M4.37 2.328h19.25c1.127 0 2.041.915 2.041 2.042v19.25a2.042 2.042 0 0 1-2.041 2.041H4.37a2.042 2.042 0 0 1-2.042-2.041V4.37c0-1.127.915-2.042 2.042-2.042ZM4.078 4.37v19.25c0 .16.13.291.292.291h19.25a.292.292 0 0 0 .291-.291V4.37a.292.292 0 0 0-.291-.292H4.37a.292.292 0 0 0-.292.292Z" fill="#fff"/></svg>