<svg width="22" height="22" fill="none" xmlns="http://www.w3.org/2000/svg"><path d="m18.909 14.666-.21-.255c-.946-1.143-1.517-1.834-1.517-5.07 0-1.676-.401-3.051-1.191-4.082-.583-.762-1.37-1.34-2.409-1.767a.127.127 0 0 1-.035-.03c-.373-1.25-1.395-2.087-2.548-2.087-1.152 0-2.174.837-2.547 2.087a.134.134 0 0 1-.035.027c-2.422.998-3.6 2.911-3.6 5.85 0 3.238-.57 3.928-1.517 5.07l-.21.255a1.51 1.51 0 0 0-.2 1.617c.265.559.83.905 1.475.905h13.273c.642 0 1.203-.346 1.469-.902a1.51 1.51 0 0 0-.198-1.618Zm-7.91 5.959a3.439 3.439 0 0 0 3.027-1.81.172.172 0 0 0-.152-.253H8.126a.172.172 0 0 0-.153.253 3.44 3.44 0 0 0 3.026 1.81Z" fill="#9FAEC6"/></svg>