<svg width="24" height="24" fill="none" xmlns="http://www.w3.org/2000/svg"><path d="m22.868 9.136-2.205-.735 1.038-2.076a1.167 1.167 0 0 0-.221-1.33L18.995 2.51a1.167 1.167 0 0 0-1.342-.222l-2.076 1.038-.736-2.205a1.167 1.167 0 0 0-1.096-.793h-3.5a1.167 1.167 0 0 0-1.109.793l-.735 2.205-2.076-1.038a1.167 1.167 0 0 0-1.33.222L2.51 4.995a1.167 1.167 0 0 0-.222 1.341l1.038 2.077-2.205.735a1.167 1.167 0 0 0-.793 1.097v3.5a1.167 1.167 0 0 0 .793 1.108l2.205.735-1.038 2.077a1.167 1.167 0 0 0 .222 1.33l2.485 2.485a1.166 1.166 0 0 0 1.341.221l2.077-1.038.735 2.205a1.167 1.167 0 0 0 1.109.794h3.5a1.167 1.167 0 0 0 1.108-.794l.735-2.205 2.077 1.038a1.167 1.167 0 0 0 1.318-.221l2.485-2.485a1.166 1.166 0 0 0 .221-1.342l-1.038-2.076 2.205-.736a1.167 1.167 0 0 0 .794-1.096v-3.5a1.167 1.167 0 0 0-.794-1.109Zm-1.54 3.769-1.4.466a2.333 2.333 0 0 0-1.353 3.29l.665 1.33-1.284 1.284-1.294-.7a2.333 2.333 0 0 0-3.255 1.353l-.467 1.4h-1.855l-.467-1.4a2.333 2.333 0 0 0-3.29-1.353l-1.33.665-1.283-1.284.7-1.294a2.334 2.334 0 0 0-1.354-3.29l-1.4-.467v-1.82l1.4-.467a2.333 2.333 0 0 0 1.354-3.29L4.75 6.033 6.033 4.75l1.295.665a2.333 2.333 0 0 0 3.29-1.354l.467-1.4h1.82l.466 1.4a2.333 2.333 0 0 0 3.29 1.354l1.33-.665 1.284 1.283-.7 1.295a2.333 2.333 0 0 0 1.353 3.255l1.4.467v1.855Zm-9.333-5.577a4.667 4.667 0 1 0 0 9.334 4.667 4.667 0 0 0 0-9.334Zm0 7a2.333 2.333 0 1 1 0-4.666 2.333 2.333 0 0 1 0 4.666Z" fill="#fff"/></svg>