<svg width="24" height="24" fill="none" xmlns="http://www.w3.org/2000/svg"><path d="M7.361 10.828a1.167 1.167 0 1 0 0 2.333 1.167 1.167 0 0 0 0-2.333Zm4.667 0a1.167 1.167 0 1 0 0 2.333 1.167 1.167 0 0 0 0-2.333Zm4.666 0a1.166 1.166 0 1 0 0 2.333 1.166 1.166 0 0 0 0-2.333ZM12.028.328A11.667 11.667 0 0 0 .36 11.995a11.538 11.538 0 0 0 2.637 7.385L.664 21.713a1.167 1.167 0 0 0-.245 1.272 1.167 1.167 0 0 0 1.109.677h10.5a11.667 11.667 0 0 0 0-23.334Zm0 21H4.339l1.085-1.085a1.166 1.166 0 0 0 .35-.828 1.167 1.167 0 0 0-.35-.817 9.333 9.333 0 1 1 6.604 2.73Z" fill="#fff"/></svg>