<svg width="24" height="24" fill="none" xmlns="http://www.w3.org/2000/svg"><path d="M11.995 6.161a1.167 1.167 0 0 0-1.167 1.167v4.667a1.166 1.166 0 1 0 2.334 0V7.328a1.167 1.167 0 0 0-1.167-1.167Zm1.073 10.057a.886.886 0 0 0-.105-.21l-.14-.175a1.166 1.166 0 0 0-1.271-.245c-.142.06-.272.142-.386.245a1.166 1.166 0 0 0-.338.829c.002.152.034.303.094.443a1.05 1.05 0 0 0 .63.63 1.097 1.097 0 0 0 .886 0 1.05 1.05 0 0 0 .63-.63c.06-.14.092-.291.094-.444a1.595 1.595 0 0 0 0-.233.747.747 0 0 0-.094-.21ZM11.995.328a11.667 11.667 0 1 0 0 23.334 11.667 11.667 0 0 0 0-23.334Zm0 21a9.334 9.334 0 1 1 0-18.667 9.334 9.334 0 0 1 0 18.667Z" fill="#fff"/></svg>